{"title":"Happy Halloween - All Hallows' Eve(the video 4 the horror movie)","uid":7778161,"size":49183109,"categoryP":"video","categoryS":"other","magnet":"?xt=urn:btih:f2f2f3ca329db445c4239ff316fffb10148dc4cf&amp;dn=Happy+Halloween+-+All+Hallows%27+Eve%28the+video+4+the+horror+movie%29&amp;tr=udp%3A%2F%2Ftracker.openbittorrent.com%3A80&amp;tr=udp%3A%2F%2Fopen.demonii.com%3A1337&amp;tr=udp%3A%2F%2Ftracker.coppersurfer.tk%3A6969&amp;tr=udp%3A%2F%2Fexodus.desync.com%3A6969","seeders":2,"leechers":0,"uploader":"baby967","files":3,"time":1351705573,"description":"Category : Full Motion Video \n\nGenre : Action  Horor\n\nSource: WEB\n\nDuration : 00:03:22 \n\nTotal Size: ~ 46.9 MB\n\nVisuals : Movies And TV Series \n\nMusical Accompaniment : Marilyn Manson - This is Halloween \n\nYear : 2011 \n\nDescription : Vampires, Werewolves, Zombies and Other Monstryatinu from various movies and TV shows\n\nList Of movies : Freddy vs. Jason, 30 Days of Night: Dark Days, Werewolves, Resident Evil,Van Helsing,Nightmare on Elm Street, Underworld And Many Others.\n\nSERIES : The Vampire Diaries, Supernatural, Walking Dead, Smallville, Charmed \n\n\n\n   General\n      Complete name : Multifandom - This Is Halloween \n      Format profile : Base Media\n      Codec ID : isom\n      File size : 46.7 MiB\n      Duration : 3mn 22s\n      Overall bit rate : 1 939 Kbps\n      Writing application : Lavf54.6.100\n   Video #1\n      ID : 1\n      Format : AVC\n      Format/Info : Advanced Video Codec\n      Format profile : &lt;a class=&quot;__cf_email__&quot; href=&quot;/cdn-cgi/l/email-protection&quot; data-cfemail=&quot;662e0f010e262a554857&quot;&gt;[email&amp;#160;protected]&lt;/a&gt;&lt;script cf-hash='f9e31' type=&quot;text/javascript&quot;&gt;\n/* &lt;![CDATA[ */!function(){try{var t=&quot;currentScript&quot;in document?document.currentScript:function(){for(var t=document.getElementsByTagName(&quot;script&quot;),e=t.length;e--;)if(t[e].getAttribute(&quot;cf-hash&quot;))return t[e]}();if(t&amp;&amp;t.previousSibling){var e,r,n,i,c=t.previousSibling,a=c.getAttribute(&quot;data-cfemail&quot;);if(a){for(e=&quot;&quot;,r=parseInt(a.substr(0,2),16),n=2;a.length-n;n+=2)i=parseInt(a.substr(n,2),16)^r,e+=String.fromCharCode(i);e=document.createTextNode(e),c.parentNode.replaceChild(e,c)}}}catch(u){}}();/* ]]&gt; */&lt;/script&gt;\n      Format settings, CABAC : Yes\n      Format settings, ReFrames : 3 frames\n      Codec ID : avc1\n      Codec ID/Info : Advanced Video Coding\n      Duration : 3mn 22s\n      Bit rate : 1 800 Kbps\n      Width : 1 280 pixels\n      Height : 720 pixels\n      Display aspect ratio : 16:9\n      Frame rate mode : Constant\n      Frame rate : 30.000 fps\n      Color space : YUV\n      Chroma subsampling : 4:2:0\n      Bit depth : 8 bits\n      Scan type : Progressive\n      Bits/(Pixel*Frame) : 0.065\n      Stream size : 43.4 MiB (93%)\n      Writing library : x264 core 118\n      \n   Audio #2\n      ID : 2\n      Format : AAC\n      Format/Info : Advanced Audio Codec\n      Format profile : LC\n      Codec ID : 40\n      Duration : 3mn 22s\n      Bit rate mode : Constant\n      Bit rate : 128 Kbps\n      Channel(s) : 2 channels\n      Channel positions : Front: L R\n      Sampling rate : 48.0 KHz\n      Compression mode : Lossy\n      Delay relative to video : -2ms\n      Stream size : 3.08 MiB (7%)\n\n\n\nHappy Halloween!!!","torrent":{"xt":"urn:btih:f2f2f3ca329db445c4239ff316fffb10148dc4cf","amp;dn":"Happy+Halloween+-+All+Hallows%27+Eve%28the+video+4+the+horror+movie%29","amp;tr":["udp%3A%2F%2Ftracker.openbittorrent.com%3A80","udp%3A%2F%2Fopen.demonii.com%3A1337","udp%3A%2F%2Ftracker.coppersurfer.tk%3A6969","udp%3A%2F%2Fexodus.desync.com%3A6969"],"infoHash":"f2f2f3ca329db445c4239ff316fffb10148dc4cf","infoHashBuffer":{"type":"Buffer","data":[242,242,243,202,50,157,180,69,196,35,159,243,22,255,251,16,20,141,196,207]},"announce":[],"urlList":[]}}